<svg width="16" height="16" viewBox="0 0 16 16" fill="none" xmlns="http://www.w3.org/2000/svg">
<path d="M5.38669 12.8572C6.37249 12.889 7.3549 12.7299 8.27585 12.3894C9.19681 12.0488 10.0376 11.5337 10.7486 10.8745C11.4596 10.2153 12.0264 9.42529 12.4153 8.55126C12.8043 7.67722 13.0077 6.73687 13.0134 5.78576C13.4651 5.24667 13.8006 4.62594 14 3.96005C14.0149 3.90744 14.0137 3.8518 13.9966 3.79983C13.9794 3.74786 13.9471 3.70178 13.9034 3.66714C13.8597 3.63249 13.8066 3.61076 13.7504 3.60456C13.6942 3.59836 13.6374 3.60796 13.5867 3.63219C13.3503 3.74189 13.0843 3.77733 12.8259 3.73351C12.5676 3.68968 12.33 3.5688 12.1467 3.3879C11.9127 3.14077 11.6296 2.94146 11.3142 2.80176C10.9988 2.66207 10.6576 2.58484 10.3107 2.57465C9.96376 2.56445 9.61827 2.62151 9.29466 2.74243C8.97104 2.86336 8.67589 3.04569 8.42669 3.27862C8.08549 3.59725 7.83558 3.99559 7.70123 4.43491C7.56689 4.87423 7.5527 5.33959 7.66003 5.78576C5.42669 5.91433 3.89336 4.89219 2.66669 3.49076C2.62984 3.45052 2.58164 3.42149 2.52796 3.40723C2.47429 3.39297 2.41747 3.39409 2.36444 3.41045C2.31142 3.42682 2.26448 3.45771 2.22936 3.49937C2.19425 3.54103 2.17247 3.59165 2.16669 3.64505C1.93301 4.89503 2.10158 6.18404 2.64977 7.33895C3.19797 8.49386 4.09952 9.45935 5.23336 10.1058C4.47312 10.9465 3.4055 11.4716 2.25336 11.5715C2.19164 11.5813 2.13466 11.6096 2.0904 11.6522C2.04613 11.6949 2.01681 11.7498 2.00652 11.8093C1.99624 11.8688 2.00551 11.9299 2.03303 11.9841C2.06055 12.0383 2.10496 12.0828 2.16003 12.1115C3.16237 12.5945 4.26618 12.8496 5.38669 12.8572Z" fill="#57A4FF"/>
</svg>
