<svg width="16" height="16" viewBox="0 0 16 16" fill="none" xmlns="http://www.w3.org/2000/svg">
<path d="M5.58626 13.3334C6.60856 13.3664 7.62736 13.2014 8.58242 12.8483C9.53749 12.4951 10.4095 11.9609 11.1468 11.2773C11.8841 10.5936 12.4718 9.7744 12.8752 8.86799C13.2786 7.96159 13.4895 6.9864 13.4954 6.00007C13.9639 5.44101 14.3118 4.79729 14.5186 4.10674C14.534 4.05218 14.5328 3.99448 14.515 3.94059C14.4972 3.88669 14.4637 3.83891 14.4184 3.80298C14.3731 3.76705 14.318 3.74452 14.2597 3.73809C14.2015 3.73166 14.1425 3.74161 14.09 3.76674C13.8449 3.88051 13.5689 3.91726 13.301 3.87181C13.0331 3.82636 12.7867 3.701 12.5966 3.5134C12.3539 3.25712 12.0603 3.05042 11.7333 2.90555C11.4062 2.76069 11.0523 2.68059 10.6926 2.67003C10.3328 2.65946 9.97456 2.71863 9.63896 2.84403C9.30336 2.96943 8.99728 3.15851 8.73885 3.40007C8.38501 3.73051 8.12584 4.1436 7.98652 4.59919C7.8472 5.05478 7.83248 5.53737 7.94379 6.00007C5.62774 6.1334 4.03761 5.0734 2.76551 3.62007C2.7273 3.57834 2.67731 3.54824 2.62165 3.53345C2.56598 3.51866 2.50706 3.51982 2.45207 3.53679C2.39708 3.55376 2.34841 3.5858 2.31199 3.629C2.27557 3.6722 2.25299 3.7247 2.247 3.78007C2.00465 5.07635 2.17947 6.4131 2.74797 7.61078C3.31646 8.80847 4.25141 9.80972 5.42724 10.4801C4.63884 11.352 3.53168 11.8965 2.33687 12.0001C2.27286 12.0103 2.21377 12.0396 2.16787 12.0838C2.12197 12.128 2.09156 12.185 2.08089 12.2467C2.07023 12.3084 2.07984 12.3718 2.10838 12.428C2.13693 12.4842 2.18297 12.5304 2.24008 12.5601C3.27955 13.061 4.42424 13.3255 5.58626 13.3334Z" fill="#57A4FF"/>
</svg>
